<svg xmlns="http://www.w3.org/2000/svg" width="206" height="206" viewBox="0 0 206 206" fill="none"><rect x="0.295977" y="0.295977" width="205.408" height="205.408" rx="102.704" stroke="white" stroke-opacity="0.24" stroke-width="0.591954"></rect><g opacity="0.5"><rect x="19.2384" y="19.2384" width="167.523" height="167.523" rx="83.7615" stroke="white" stroke-opacity="0.24" stroke-width="0.591954"></rect></g><rect x="51" y="51" width="104" height="104" rx="52" fill="#5FD58C"></rect><path d="M98.5893 84.7328L122.282 99.2115C123.434 99.9519 124.174 101.268 124.174 102.584C124.174 103.983 123.434 105.299 122.282 105.957L98.5893 120.436C97.3553 121.176 95.7923 121.259 94.5583 120.518C93.3243 119.86 92.5839 118.544 92.5839 117.063V88.1056C92.5839 86.7071 93.3243 85.3909 94.5583 84.7328C95.7923 83.9924 97.3553 83.9924 98.5893 84.7328Z" fill="white"></path></svg>